<svg xmlns="http://www.w3.org/2000/svg" width="192" height="192" viewBox="0 0 192 192">
  <!-- Background -->
  <rect width="192" height="192" rx="24" fill="#1a1a2e"/>

  <!-- Drone arms (X shape) -->
  <line x1="56" y1="56" x2="136" y2="136" stroke="#e94560" stroke-width="6" stroke-linecap="round"/>
  <line x1="136" y1="56" x2="56" y2="136" stroke="#e94560" stroke-width="6" stroke-linecap="round"/>

  <!-- Center body -->
  <circle cx="96" cy="96" r="14" fill="#e94560"/>
  <circle cx="96" cy="96" r="8" fill="#1a1a2e"/>

  <!-- Propeller circles (top-left) -->
  <circle cx="56" cy="56" r="22" fill="none" stroke="#e94560" stroke-width="3" opacity="0.9"/>
  <circle cx="56" cy="56" r="5" fill="#e94560"/>

  <!-- Propeller circles (top-right) -->
  <circle cx="136" cy="56" r="22" fill="none" stroke="#e94560" stroke-width="3" opacity="0.9"/>
  <circle cx="136" cy="56" r="5" fill="#e94560"/>

  <!-- Propeller circles (bottom-left) -->
  <circle cx="56" cy="136" r="22" fill="none" stroke="#e94560" stroke-width="3" opacity="0.9"/>
  <circle cx="56" cy="136" r="5" fill="#e94560"/>

  <!-- Propeller circles (bottom-right) -->
  <circle cx="136" cy="136" r="22" fill="none" stroke="#e94560" stroke-width="3" opacity="0.9"/>
  <circle cx="136" cy="136" r="5" fill="#e94560"/>

  <!-- Propeller blade arcs (stylized spin indicators) -->
  <path d="M 42 44 A 22 22 0 0 1 68 44" fill="#e94560" opacity="0.4"/>
  <path d="M 44 70 A 22 22 0 0 1 44 44" fill="#e94560" opacity="0.4"/>

  <path d="M 122 44 A 22 22 0 0 1 148 44" fill="#e94560" opacity="0.4"/>
  <path d="M 148 70 A 22 22 0 0 1 148 44" fill="#e94560" opacity="0.4"/>

  <path d="M 42 124 A 22 22 0 0 1 68 124" fill="#e94560" opacity="0.4"/>
  <path d="M 44 150 A 22 22 0 0 1 44 124" fill="#e94560" opacity="0.4"/>

  <path d="M 122 124 A 22 22 0 0 1 148 124" fill="#e94560" opacity="0.4"/>
  <path d="M 148 150 A 22 22 0 0 1 148 124" fill="#e94560" opacity="0.4"/>
</svg>
